<svg width="33" height="33" viewBox="0 0 33 33" fill="none" xmlns="http://www.w3.org/2000/svg">
<circle cx="16.0698" cy="16.8256" r="16" fill="#00ACEE"/>
<path d="M24.9886 11.6366C24.3524 11.9185 23.669 12.109 22.9505 12.1951C23.6918 11.7515 24.2465 11.0533 24.5109 10.2309C23.8144 10.6446 23.0521 10.9358 22.2572 11.0918C21.7226 10.5211 21.0145 10.1427 20.2429 10.0156C19.4713 9.88849 18.6793 10.0197 17.9899 10.3888C17.3005 10.7579 16.7522 11.3443 16.4302 12.0569C16.1082 12.7696 16.0305 13.5686 16.2092 14.3299C14.7979 14.2591 13.4173 13.8922 12.1569 13.2533C10.8966 12.6143 9.78466 11.7175 8.89335 10.621C8.58859 11.1467 8.41335 11.7562 8.41335 12.4054C8.41301 12.9897 8.55692 13.5652 8.83231 14.0806C9.1077 14.596 9.50605 15.0355 9.99202 15.36C9.42842 15.3421 8.87726 15.1898 8.3844 14.9158V14.9615C8.38434 15.7812 8.66785 16.5755 9.18683 17.2099C9.7058 17.8443 10.4283 18.2796 11.2316 18.4419C10.7088 18.5834 10.1607 18.6043 9.62859 18.5029C9.85526 19.2081 10.2968 19.8248 10.8913 20.2666C11.4859 20.7085 12.2038 20.9533 12.9444 20.9669C11.6871 21.9539 10.1344 22.4892 8.53602 22.4869C8.25288 22.4869 7.96998 22.4704 7.68878 22.4373C9.31124 23.4805 11.1999 24.0342 13.1288 24.032C19.6583 24.032 23.2278 18.624 23.2278 13.9337C23.2278 13.7813 23.224 13.6274 23.2172 13.4751C23.9115 12.9729 24.5108 12.3512 24.9871 11.6389L24.9886 11.6366Z" fill="white"/>
</svg>
