<svg width="33" height="33" viewBox="0 0 33 33" fill="none" xmlns="http://www.w3.org/2000/svg">
<circle cx="16.5349" cy="16.8256" r="16" fill="url(#paint0_linear)"/>
<circle cx="16.5349" cy="16.8256" r="16" fill="url(#paint1_linear)"/>
<circle cx="16.5349" cy="16.8256" r="16" fill="url(#paint2_linear)"/>
<circle cx="16.5349" cy="16.8256" r="16" fill="black" fill-opacity="0.2"/>
<circle cx="16.5349" cy="16.8256" r="16" fill="black" fill-opacity="0.2"/>
<circle cx="16.5349" cy="16.8256" r="16" fill="url(#paint3_linear)"/>
<circle cx="16.5349" cy="16.8256" r="16" fill="url(#paint4_linear)"/>
<circle cx="16.5349" cy="16.8256" r="16" fill="url(#paint5_linear)"/>
<path fill-rule="evenodd" clip-rule="evenodd" d="M13.0797 8.49493C13.9734 8.45378 14.2584 8.44464 16.5349 8.44464C18.8115 8.44464 19.0965 8.45455 19.9894 8.49493C20.8824 8.53531 21.4919 8.67778 22.0252 8.88426C22.5837 9.09531 23.0904 9.42521 23.5094 9.85188C23.9361 10.2702 24.2652 10.7761 24.4755 11.3353C24.6828 11.8686 24.8245 12.4782 24.8656 13.3696C24.9068 14.2648 24.9159 14.5498 24.9159 16.8256C24.9159 19.1022 24.906 19.3871 24.8656 20.2808C24.8252 21.1723 24.6828 21.7818 24.4755 22.3151C24.2652 22.8744 23.9355 23.3812 23.5094 23.8001C23.0904 24.2267 22.5837 24.5559 22.0252 24.7662C21.4919 24.9734 20.8824 25.1151 19.9909 25.1563C19.0965 25.1974 18.8115 25.2065 16.5349 25.2065C14.2584 25.2065 13.9734 25.1966 13.0797 25.1563C12.1883 25.1159 11.5788 24.9734 11.0454 24.7662C10.4861 24.5559 9.97938 24.2262 9.56047 23.8001C9.13409 23.3815 8.80414 22.875 8.59361 22.3159C8.38713 21.7825 8.24542 21.173 8.20428 20.2816C8.16313 19.3864 8.15399 19.1014 8.15399 16.8256C8.15399 14.549 8.1639 14.2641 8.20428 13.3711C8.24466 12.4782 8.38713 11.8686 8.59361 11.3353C8.80445 10.7761 9.13465 10.2696 9.56123 9.85112C9.97955 9.42483 10.4858 9.09488 11.0447 8.88426C11.578 8.67778 12.1875 8.53607 13.0789 8.49493H13.0797ZM19.9216 10.0035C19.0378 9.96312 18.7727 9.95474 16.5349 9.95474C14.2972 9.95474 14.0321 9.96312 13.1483 10.0035C12.3308 10.0408 11.8873 10.1772 11.5917 10.2923C11.2008 10.4446 10.9212 10.6252 10.6279 10.9185C10.3498 11.1891 10.1358 11.5184 10.0016 11.8824C9.88656 12.178 9.75018 12.6214 9.71285 13.4389C9.67247 14.3227 9.66409 14.5879 9.66409 16.8256C9.66409 19.0633 9.67247 19.3285 9.71285 20.2123C9.75018 21.0298 9.88656 21.4732 10.0016 21.7688C10.1357 22.1323 10.3498 22.4622 10.6279 22.7326C10.8984 23.0107 11.2283 23.2248 11.5917 23.3589C11.8873 23.474 12.3308 23.6104 13.1483 23.6477C14.0321 23.6881 14.2965 23.6965 16.5349 23.6965C18.7734 23.6965 19.0378 23.6881 19.9216 23.6477C20.7391 23.6104 21.1826 23.474 21.4782 23.3589C21.869 23.2065 22.1487 23.026 22.442 22.7326C22.7201 22.4622 22.9342 22.1323 23.0683 21.7688C23.1833 21.4732 23.3197 21.0298 23.357 20.2123C23.3974 19.3285 23.4058 19.0633 23.4058 16.8256C23.4058 14.5879 23.3974 14.3227 23.357 13.4389C23.3197 12.6214 23.1833 12.178 23.0683 11.8824C22.9159 11.4915 22.7353 11.2119 22.442 10.9185C22.1715 10.6405 21.8421 10.4265 21.4782 10.2923C21.1826 10.1772 20.7391 10.0408 19.9216 10.0035ZM15.4645 19.4092C16.0623 19.6581 16.728 19.6917 17.3478 19.5042C17.9677 19.3168 18.5032 18.92 18.863 18.3816C19.2228 17.8432 19.3845 17.1965 19.3205 16.5521C19.2565 15.9078 18.9708 15.3056 18.5121 14.8485C18.2197 14.5562 17.8662 14.3325 17.4769 14.1933C17.0877 14.0542 16.6724 14.003 16.261 14.0436C15.8497 14.0842 15.4524 14.2154 15.0978 14.428C14.7433 14.6405 14.4403 14.929 14.2106 15.2727C13.9809 15.6164 13.8303 16.0068 13.7696 16.4157C13.7089 16.8246 13.7396 17.2418 13.8595 17.6374C13.9795 18.033 14.1856 18.3971 14.4631 18.7035C14.7406 19.0098 15.0826 19.2509 15.4645 19.4092ZM13.4888 13.7795C13.8889 13.3795 14.3638 13.0622 14.8864 12.8457C15.4091 12.6292 15.9692 12.5178 16.5349 12.5178C17.1007 12.5178 17.6608 12.6292 18.1835 12.8457C18.7061 13.0622 19.181 13.3795 19.581 13.7795C19.9811 14.1795 20.2984 14.6544 20.5149 15.1771C20.7313 15.6997 20.8428 16.2599 20.8428 16.8256C20.8428 17.3913 20.7313 17.9515 20.5149 18.4741C20.2984 18.9968 19.9811 19.4717 19.581 19.8717C18.7732 20.6796 17.6775 21.1334 16.5349 21.1334C15.3924 21.1334 14.2967 20.6796 13.4888 19.8717C12.681 19.0638 12.2271 17.9681 12.2271 16.8256C12.2271 15.6831 12.681 14.5874 13.4888 13.7795ZM21.7982 13.1593C21.8973 13.0658 21.9767 12.9534 22.0316 12.8286C22.0864 12.7039 22.1158 12.5694 22.1177 12.4332C22.1197 12.2969 22.0944 12.1616 22.0431 12.0354C21.9919 11.9091 21.9158 11.7944 21.8195 11.698C21.7231 11.6016 21.6084 11.5256 21.4821 11.4744C21.3559 11.4231 21.2206 11.3978 21.0843 11.3998C20.9481 11.4017 20.8136 11.431 20.6889 11.4859C20.5641 11.5408 20.4517 11.6202 20.3582 11.7193C20.1763 11.9121 20.0768 12.1682 20.0806 12.4332C20.0845 12.6982 20.1915 12.9512 20.3789 13.1386C20.5663 13.326 20.8193 13.433 21.0843 13.4369C21.3493 13.4407 21.6054 13.3412 21.7982 13.1593Z" fill="white"/>
<defs>
<linearGradient id="paint0_linear" x1="7.39206" y1="16.8256" x2="16.5349" y2="25.9684" gradientUnits="userSpaceOnUse">
<stop offset="0.0947113" stop-color="#FCCC63"/>
<stop offset="1" stop-color="#FCCC63" stop-opacity="0.39"/>
</linearGradient>
<linearGradient id="paint1_linear" x1="15.0111" y1="5.39699" x2="25.6778" y2="25.5875" gradientUnits="userSpaceOnUse">
<stop offset="0.150662" stop-color="#E95950"/>
<stop offset="1" stop-color="#E95950" stop-opacity="0.48"/>
</linearGradient>
<linearGradient id="paint2_linear" x1="26.4397" y1="3.49223" x2="12.3444" y2="19.4922" gradientUnits="userSpaceOnUse">
<stop offset="0.0947113" stop-color="#8A3AB9"/>
<stop offset="1" stop-color="#B82B90" stop-opacity="0.074792"/>
</linearGradient>
<linearGradient id="paint3_linear" x1="11.9635" y1="15.3018" x2="9.67777" y2="30.9208" gradientUnits="userSpaceOnUse">
<stop offset="0.0947113" stop-color="#FCCC63"/>
<stop offset="1" stop-color="#FCCC63"/>
</linearGradient>
<linearGradient id="paint4_linear" x1="15.0111" y1="5.39699" x2="25.6778" y2="25.5875" gradientUnits="userSpaceOnUse">
<stop offset="0.150662" stop-color="#E95950"/>
<stop offset="1" stop-color="#E95950" stop-opacity="0.48"/>
</linearGradient>
<linearGradient id="paint5_linear" x1="26.4397" y1="3.49223" x2="12.3444" y2="19.4922" gradientUnits="userSpaceOnUse">
<stop offset="0.0947113" stop-color="#8A3AB9"/>
<stop offset="1" stop-color="#B82B90" stop-opacity="0.074792"/>
</linearGradient>
</defs>
</svg>
