<svg width="33" height="33" viewBox="0 0 33 33" fill="none" xmlns="http://www.w3.org/2000/svg">
<circle cx="16.6046" cy="16.8256" r="16" fill="#0072B1"/>
<path d="M11.4146 13.3025C12.3353 13.3025 13.0817 12.5561 13.0817 11.6354C13.0817 10.7147 12.3353 9.96838 11.4146 9.96838C10.4939 9.96838 9.74756 10.7147 9.74756 11.6354C9.74756 12.5561 10.4939 13.3025 11.4146 13.3025Z" fill="white"/>
<path d="M14.6558 14.566V23.8148H17.5274V19.2411C17.5274 18.0342 17.7545 16.8655 19.2509 16.8655C20.7267 16.8655 20.745 18.2453 20.745 19.3173V23.8156H23.6181V18.7436C23.6181 16.2521 23.0817 14.3375 20.1697 14.3375C18.7716 14.3375 17.8345 15.1047 17.4512 15.8308H17.4124V14.566H14.6558ZM9.9762 14.566H12.8524V23.8148H9.9762V14.566Z" fill="white"/>
</svg>
