<svg width="16" height="17" viewBox="0 0 16 17" fill="none" xmlns="http://www.w3.org/2000/svg">
<path d="M8 0.5C3.58171 0.5 0 4.08171 0 8.5C0 12.9183 3.58171 16.5 8 16.5C12.4183 16.5 16 12.9183 16 8.5C16 4.08171 12.4183 0.5 8 0.5ZM8 14.9516C4.43445 14.9516 1.54839 12.0661 1.54839 8.5C1.54839 4.93448 4.4339 2.04839 8 2.04839C11.5655 2.04839 14.4516 4.9339 14.4516 8.5C14.4516 12.0655 11.5661 14.9516 8 14.9516ZM11.4629 11.6915C11.1528 12.0048 9.99423 13.0268 8.106 13.0268C5.44697 13.0268 3.57426 11.0454 3.57426 8.46016C3.57426 5.90687 5.51861 3.96335 8.08271 3.96335C9.87403 3.96335 10.9452 4.82206 11.2309 5.08526C11.298 5.14699 11.3411 5.23049 11.3525 5.32096C11.3639 5.41143 11.343 5.50303 11.2933 5.57952L10.7077 6.48639C10.5838 6.67832 10.3217 6.72129 10.1432 6.58061C9.86594 6.36203 9.11693 5.85358 8.15261 5.85358C6.59445 5.85358 5.63919 6.99326 5.63919 8.43687C5.63919 9.77845 6.50655 11.1366 8.16426 11.1366C9.21771 11.1366 9.9979 10.5225 10.2845 10.2584C10.4545 10.1017 10.723 10.1281 10.8593 10.3145L11.5001 11.1909C11.5547 11.265 11.581 11.3563 11.5742 11.4481C11.5674 11.5399 11.5279 11.6262 11.4629 11.6915Z" fill="#1B2124"/>
</svg>
